<?xml version="1.0" encoding="UTF-8" standalone="no"?>
<!-- Created with Inkscape (http://www.inkscape.org/) -->

<svg
   xmlns:dc="http://purl.org/dc/elements/1.1/"
   xmlns:cc="http://creativecommons.org/ns#"
   xmlns:rdf="http://www.w3.org/1999/02/22-rdf-syntax-ns#"
   xmlns:svg="http://www.w3.org/2000/svg"
   xmlns="http://www.w3.org/2000/svg"
   xmlns:sodipodi="http://sodipodi.sourceforge.net/DTD/sodipodi-0.dtd"
   xmlns:inkscape="http://www.inkscape.org/namespaces/inkscape"
   width="300"
   height="209"
   id="svg2"
   version="1.1"
   inkscape:version="0.48.2 r9819"
   sodipodi:docname="EAL.svg">
  <defs
     id="defs4" />
  <sodipodi:namedview
     id="base"
     pagecolor="#ffffff"
     bordercolor="#666666"
     borderopacity="1.0"
     inkscape:pageopacity="0.0"
     inkscape:pageshadow="2"
     inkscape:zoom="0.93566975"
     inkscape:cx="-12.762702"
     inkscape:cy="11.698771"
     inkscape:document-units="px"
     inkscape:current-layer="text2992"
     showgrid="false"
     fit-margin-top="0"
     fit-margin-left="0"
     fit-margin-right="0"
     fit-margin-bottom="0"
     inkscape:window-width="1180"
     inkscape:window-height="575"
     inkscape:window-x="1327"
     inkscape:window-y="386"
     inkscape:window-maximized="0" />
  <metadata
     id="metadata7">
    <rdf:RDF>
      <cc:Work
         rdf:about="">
        <dc:format>image/svg+xml</dc:format>
        <dc:type
           rdf:resource="http://purl.org/dc/dcmitype/StillImage" />
        <dc:title />
      </cc:Work>
    </rdf:RDF>
  </metadata>
  <g
     inkscape:label="Ebene 1"
     inkscape:groupmode="layer"
     id="layer1"
     transform="translate(-155.71431,-107.86221)">
    <rect
       style="fill:#ffffff;fill-opacity:0.49615383;fill-rule:nonzero;stroke:none"
       id="rect2990"
       width="302.45715"
       height="212.68188"
       x="0"
       y="-1.5443721"
       transform="translate(155.71431,107.86221)" />
    <g
       style="font-size:40px;font-style:normal;font-weight:normal;line-height:125%;letter-spacing:0px;word-spacing:0px;fill:#ffffff;fill-opacity:1;stroke:none;font-family:Bitstream Vera Sans"
       id="text3808">
      <path
         d="m 359.27921,249.15747 -3.02454,0 0,-6.5885 -4.93176,0 0,18.68445 3.02453,0 0,3.23987 -9.54052,0 0,-3.23987 2.95202,0 0,-18.68445 -4.93176,0 0,6.5885 -3.02454,0 0,-9.61194 19.47657,0 z"
         style="font-size:36px;font-variant:normal;font-stretch:normal;font-family:Rockland;-inkscape-font-specification:Rockland;fill:#ffffff"
         id="path2991" />
      <path
         d="m 385.24319,264.49329 -9.57568,0 0,-3.23987 3.02454,0 0,-8.63965 -10.83692,0 0,8.63965 3.09595,0 0,3.23987 -9.61194,0 0,-3.23987 2.95203,0 0,-18.68445 -2.95203,0 0,-3.02344 9.61194,0 0,3.02344 -3.09595,0 0,7.09277 10.83692,0 0,-7.09277 -3.02454,0 0,-3.02344 9.57568,0 0,3.02344 -2.95202,0 0,18.68445 2.95202,0 z"
         style="font-size:36px;font-variant:normal;font-stretch:normal;font-family:Rockland;-inkscape-font-specification:Rockland;fill:#ffffff"
         id="path2993" />
      <path
         d="m 419.26785,242.56897 -3.16736,0 -5.40087,21.92432 -3.31128,0 -5.36463,-19.83582 -4.82409,19.83582 -3.31128,0 -5.90406,-21.92432 -2.70044,0 0,-3.02344 9.21643,0 0,3.02344 -3.09594,0 4.28357,16.70471 4.10449,-16.70471 -3.09595,0 0,-3.02344 11.23132,0 0,3.02344 -3.09594,0 4.31982,16.70471 4.06824,-16.70471 -3.09595,0 0,-3.02344 9.14392,0 z"
         style="font-size:36px;font-variant:normal;font-stretch:normal;font-family:Rockland;-inkscape-font-specification:Rockland;fill:#ffffff"
         id="path2995" />
    </g>
    <path
       style="fill:#ffff00;fill-opacity:1;fill-rule:nonzero;stroke:#000000;stroke-width:10.64509583;stroke-miterlimit:4;stroke-opacity:1"
       d="m 170.67731,124.48663 272.95813,0 0,152.62458 -272.95813,0 0,36.33752 z"
       id="rect3002"
       inkscape:connector-curvature="0"
       sodipodi:nodetypes="cccccc" />
    <g
       style="font-size:40px;font-style:normal;font-weight:normal;line-height:125%;letter-spacing:0px;word-spacing:0px;fill:#000000;fill-opacity:1;stroke:none;font-family:Bitstream Vera Sans"
       id="text2992">
      <path
         d="m 277.12274,188.29631 -12.39258,0 0,-4.7832 -8.48242,0 0,7.11133 11.60156,0 0,12.06054 -11.60156,0 0,8.52539 8.48242,0 0,-6.19726 12.22657,0 0,17.79883 -39.13086,0 0,-11.14454 4.82422,0 0,-28.90234 -4.82422,0 0,-10.97852 39.29687,0 z"
         style="font-size:64px;font-variant:normal;font-weight:bold;font-stretch:normal;font-family:Lubalin Graph;-inkscape-font-specification:Lubalin Graph Bold"
         id="path2997" />
      <path
         d="m 334.3454,222.81194 -23.03711,0 0,-9.77344 4.1582,0 -1.70508,-4.15821 -13.59765,0 -1.41407,4.03516 5.11524,0 0,9.89649 -22.58203,0 0,-11.14454 4.49219,0 11.76757,-28.90234 -4.65625,0 0,-10.97852 19.79297,0 16.38477,39.88086 5.28125,0 z m -23.66211,-23.99415 -3.70117,-11.60351 -3.86719,11.60351 z"
         style="font-size:64px;font-variant:normal;font-weight:bold;font-stretch:normal;font-family:Lubalin Graph;-inkscape-font-specification:Lubalin Graph Bold"
         id="path2999" />
      <path
         d="m 377.99774,222.81194 -39.29687,0 0,-11.14454 5.28125,0 0,-28.90234 -5.28125,0 0,-10.97852 22.74609,0 0,10.97852 -4.49023,0 0,28.11133 8.8164,0 0,-6.94336 12.22461,0 z"
         style="font-size:64px;font-variant:normal;font-weight:bold;font-stretch:normal;font-family:Lubalin Graph;-inkscape-font-specification:Lubalin Graph Bold"
         id="path3001" />
    </g>
  </g>
</svg>
