<?xml version="1.0" encoding="UTF-8" standalone="no"?>
<!-- Created with Inkscape (http://www.inkscape.org/) -->

<svg
   xmlns:dc="http://purl.org/dc/elements/1.1/"
   xmlns:cc="http://creativecommons.org/ns#"
   xmlns:rdf="http://www.w3.org/1999/02/22-rdf-syntax-ns#"
   xmlns:svg="http://www.w3.org/2000/svg"
   xmlns="http://www.w3.org/2000/svg"
   xmlns:sodipodi="http://sodipodi.sourceforge.net/DTD/sodipodi-0.dtd"
   xmlns:inkscape="http://www.inkscape.org/namespaces/inkscape"
   width="300"
   height="209"
   id="svg2"
   version="1.1"
   inkscape:version="0.48.2 r9819"
   sodipodi:docname="ELO.svg">
  <defs
     id="defs4" />
  <sodipodi:namedview
     id="base"
     pagecolor="#ffffff"
     bordercolor="#666666"
     borderopacity="1.0"
     inkscape:pageopacity="0.0"
     inkscape:pageshadow="2"
     inkscape:zoom="0.93566975"
     inkscape:cx="-12.762702"
     inkscape:cy="11.698771"
     inkscape:document-units="px"
     inkscape:current-layer="layer1"
     showgrid="false"
     fit-margin-top="0"
     fit-margin-left="0"
     fit-margin-right="0"
     fit-margin-bottom="0"
     inkscape:window-width="1180"
     inkscape:window-height="575"
     inkscape:window-x="1327"
     inkscape:window-y="386"
     inkscape:window-maximized="0" />
  <metadata
     id="metadata7">
    <rdf:RDF>
      <cc:Work
         rdf:about="">
        <dc:format>image/svg+xml</dc:format>
        <dc:type
           rdf:resource="http://purl.org/dc/dcmitype/StillImage" />
        <dc:title></dc:title>
      </cc:Work>
    </rdf:RDF>
  </metadata>
  <g
     inkscape:label="Ebene 1"
     inkscape:groupmode="layer"
     id="layer1"
     transform="translate(-155.71431,-107.86221)">
    <rect
       style="fill:#ffffff;fill-opacity:0.49615383;fill-rule:nonzero;stroke:none"
       id="rect2990"
       width="302.45715"
       height="212.68188"
       x="0"
       y="-1.5443721"
       transform="translate(155.71431,107.86221)" />
    <g
       style="font-size:40px;font-style:normal;font-weight:normal;line-height:125%;letter-spacing:0px;word-spacing:0px;fill:#ffffff;fill-opacity:1;stroke:none;font-family:Bitstream Vera Sans"
       id="text3808">
      <path
         d="m 359.27921,249.15747 -3.02454,0 0,-6.5885 -4.93176,0 0,18.68445 3.02453,0 0,3.23987 -9.54052,0 0,-3.23987 2.95202,0 0,-18.68445 -4.93176,0 0,6.5885 -3.02454,0 0,-9.61194 19.47657,0 z"
         style="font-size:36px;font-variant:normal;font-stretch:normal;font-family:Rockland;-inkscape-font-specification:Rockland;fill:#ffffff"
         id="path2991" />
      <path
         d="m 385.24319,264.49329 -9.57568,0 0,-3.23987 3.02454,0 0,-8.63965 -10.83692,0 0,8.63965 3.09595,0 0,3.23987 -9.61194,0 0,-3.23987 2.95203,0 0,-18.68445 -2.95203,0 0,-3.02344 9.61194,0 0,3.02344 -3.09595,0 0,7.09277 10.83692,0 0,-7.09277 -3.02454,0 0,-3.02344 9.57568,0 0,3.02344 -2.95202,0 0,18.68445 2.95202,0 z"
         style="font-size:36px;font-variant:normal;font-stretch:normal;font-family:Rockland;-inkscape-font-specification:Rockland;fill:#ffffff"
         id="path2993" />
      <path
         d="m 419.26785,242.56897 -3.16736,0 -5.40087,21.92432 -3.31128,0 -5.36463,-19.83582 -4.82409,19.83582 -3.31128,0 -5.90406,-21.92432 -2.70044,0 0,-3.02344 9.21643,0 0,3.02344 -3.09594,0 4.28357,16.70471 4.10449,-16.70471 -3.09595,0 0,-3.02344 11.23132,0 0,3.02344 -3.09594,0 4.31982,16.70471 4.06824,-16.70471 -3.09595,0 0,-3.02344 9.14392,0 z"
         style="font-size:36px;font-variant:normal;font-stretch:normal;font-family:Rockland;-inkscape-font-specification:Rockland;fill:#ffffff"
         id="path2995" />
    </g>
    <path
       style="fill:#ffff00;fill-opacity:1;fill-rule:nonzero;stroke:#000000;stroke-width:10.64509583;stroke-miterlimit:4;stroke-opacity:1"
       d="m 170.67731,124.48663 272.95813,0 0,152.62458 -272.95813,0 0,36.33752 z"
       id="rect3002"
       inkscape:connector-curvature="0"
       sodipodi:nodetypes="cccccc" />
    <g
       style="font-size:40px;font-style:normal;font-weight:normal;line-height:125%;letter-spacing:0px;word-spacing:0px;fill:#000000;fill-opacity:1;stroke:none;font-family:Bitstream Vera Sans"
       id="text3023">
      <path
         d="m 257.15039,224.94943 -24.28711,0 0,-10.6875 3.86719,0 -11.72656,-11.60156 0,11.60156 4.61718,0 0,10.6875 -22.58203,0 0,-11.14453 4.82422,0 0,-28.90234 -4.82422,0 0,-10.97852 22.12305,0 0,10.97852 -4.1582,0 0,10.64648 11.43554,-10.64648 -3.57617,0 0,-10.97852 23.03906,0 0,10.97852 -2.91015,0 -15.92774,14.05664 15.75977,14.8457 4.32617,0 z"
         style="font-size:64px;font-variant:normal;font-weight:bold;font-stretch:normal;font-family:Lubalin Graph;-inkscape-font-specification:Lubalin Graph Bold"
         id="path3028" />
      <path
         d="m 307.11719,225.11545 -15.96875,0 0,-2.95313 c -1.6641,1.19271 -3.20999,2.05925 -4.6377,2.59961 -1.42776,0.54037 -3.07001,0.81055 -4.92676,0.81055 -5.62762,0 -10.40984,-1.86426 -14.34668,-5.59277 -3.93685,-3.72851 -5.90527,-8.30956 -5.90527,-13.74317 0,-5.60023 1.90592,-10.45895 5.71777,-14.57617 3.81184,-4.11715 8.44823,-6.17574 13.90918,-6.17578 2.16274,4e-5 3.97915,0.27738 5.44922,0.83203 1.0807,0.4154 2.56378,1.27478 4.44922,2.57812 l 0,-2.61914 16.25977,0 0,10.6875 -4.20117,0 0,16.8418 4.20117,0 z m -15.96875,-19.33594 c -3e-5,-2.49607 -0.85257,-4.64516 -2.55762,-6.44727 -1.70511,-1.80205 -3.77769,-2.70309 -6.21777,-2.70312 -2.41148,3e-5 -4.51141,0.8249 -6.29981,2.47461 -1.78842,1.64976 -2.68263,3.66669 -2.68262,6.05078 -1e-5,2.52346 0.8317,4.69989 2.49512,6.5293 1.6634,1.82944 3.71515,2.74415 6.15528,2.74414 2.46742,1e-5 4.60218,-0.8317 6.40429,-2.49512 1.80205,-1.6634 2.7031,-3.7145 2.70313,-6.15332 z"
         style="font-size:64px;font-variant:normal;font-weight:bold;font-stretch:normal;font-family:Lubalin Graph;-inkscape-font-specification:Lubalin Graph Bold"
         id="path3030" />
      <path
         d="m 333.78711,196.9631 -5.07422,0 0,16.8418 4.16016,0 0,11.14453 -16.38477,0 0,-27.98633 -5.40625,0 0,-10.6875 5.23828,0 0,-12.35156 11.76953,0 0,12.35156 5.69727,0 z"
         style="font-size:64px;font-variant:normal;font-weight:bold;font-stretch:normal;font-family:Lubalin Graph;-inkscape-font-specification:Lubalin Graph Bold"
         id="path3032" />
      <path
         d="m 373.30273,210.22873 c -3e-5,4.35287 -1.60094,8.10254 -4.80273,11.24902 -3.20185,3.14649 -6.93753,4.71973 -11.20703,4.71973 -3.07684,0 -5.9603,-0.98438 -8.65039,-2.95313 l 0,1.70508 -10.51953,0 0,-16.38476 11.60156,0 0,1.20703 c -10e-6,1.80079 0.62368,3.20053 1.87109,4.19922 1.05337,0.83204 2.27342,1.24805 3.66016,1.24804 0.27732,1e-5 0.48501,-0.0143 0.62305,-0.043 1.27602,-0.13801 2.34372,-0.67837 3.20312,-1.62109 0.85935,-0.94269 1.28904,-2.05142 1.28906,-3.32617 -2e-5,-1.10936 -0.4577,-2.05207 -1.37304,-2.82813 -0.66539,-0.58201 -1.7051,-1.12237 -3.11914,-1.62109 l -7.85938,-2.95312 c -3.2435,-1.19269 -5.79395,-3.0156 -7.65137,-5.46875 -1.85742,-2.4531 -2.78613,-5.34307 -2.78613,-8.66993 0,-4.32548 1.5664,-7.9853 4.69922,-10.97949 3.1328,-2.99409 6.95832,-4.49116 11.47656,-4.49121 1.47004,5e-5 2.77342,0.19406 3.91016,0.58203 1.13669,0.38807 2.39776,1.03977 3.7832,1.95508 l 0,-1.83008 9.73242,0 0,15.13672 -11.5625,0 c 0.0286,-0.11064 0.043,-0.29098 0.043,-0.54102 -2e-5,-1.24735 -0.49221,-2.32157 -1.47656,-3.22265 -0.9844,-0.901 -2.11395,-1.35152 -3.38867,-1.35156 -1.19273,4e-5 -2.21193,0.43689 -3.05762,1.31054 -0.84572,0.87374 -1.26857,1.90629 -1.26855,3.09766 -2e-5,1.08207 0.40232,2.0111 1.20703,2.78711 0.66535,0.6654 1.60805,1.19209 2.82812,1.58008 l 6.32031,2.16211 c 3.85284,1.30341 6.83331,3.14716 8.94141,5.53125 2.35543,2.66148 3.53317,5.93296 3.5332,9.81445 z"
         style="font-size:64px;font-variant:normal;font-weight:bold;font-stretch:normal;font-family:Lubalin Graph;-inkscape-font-specification:Lubalin Graph Bold"
         id="path3034" />
      <path
         d="m 416.25391,224.94943 -39.29688,0 0,-11.14453 5.28125,0 0,-28.90234 -5.28125,0 0,-10.97852 22.74609,0 0,10.97852 -4.49023,0 0,28.11133 8.81641,0 0,-6.94336 12.22461,0 z"
         style="font-size:64px;font-variant:normal;font-weight:bold;font-stretch:normal;font-family:Lubalin Graph;-inkscape-font-specification:Lubalin Graph Bold"
         id="path3036" />
    </g>
  </g>
</svg>
