<?xml version="1.0" encoding="UTF-8" standalone="no"?>
<!-- Created with Inkscape (http://www.inkscape.org/) -->

<svg
   xmlns:dc="http://purl.org/dc/elements/1.1/"
   xmlns:cc="http://creativecommons.org/ns#"
   xmlns:rdf="http://www.w3.org/1999/02/22-rdf-syntax-ns#"
   xmlns:svg="http://www.w3.org/2000/svg"
   xmlns="http://www.w3.org/2000/svg"
   xmlns:sodipodi="http://sodipodi.sourceforge.net/DTD/sodipodi-0.dtd"
   xmlns:inkscape="http://www.inkscape.org/namespaces/inkscape"
   width="300"
   height="209"
   id="svg2"
   version="1.1"
   inkscape:version="0.48.2 r9819"
   sodipodi:docname="OeEL.svg">
  <defs
     id="defs4" />
  <sodipodi:namedview
     id="base"
     pagecolor="#ffffff"
     bordercolor="#666666"
     borderopacity="1.0"
     inkscape:pageopacity="0.0"
     inkscape:pageshadow="2"
     inkscape:zoom="0.93566975"
     inkscape:cx="62.981024"
     inkscape:cy="11.698771"
     inkscape:document-units="px"
     inkscape:current-layer="text3839"
     showgrid="false"
     fit-margin-top="0"
     fit-margin-left="0"
     fit-margin-right="0"
     fit-margin-bottom="0"
     inkscape:window-width="1180"
     inkscape:window-height="575"
     inkscape:window-x="1327"
     inkscape:window-y="386"
     inkscape:window-maximized="0" />
  <metadata
     id="metadata7">
    <rdf:RDF>
      <cc:Work
         rdf:about="">
        <dc:format>image/svg+xml</dc:format>
        <dc:type
           rdf:resource="http://purl.org/dc/dcmitype/StillImage" />
        <dc:title></dc:title>
      </cc:Work>
    </rdf:RDF>
  </metadata>
  <g
     inkscape:label="Ebene 1"
     inkscape:groupmode="layer"
     id="layer1"
     transform="translate(-155.71431,-107.86221)">
    <rect
       style="fill:#ffffff;fill-opacity:0.49615383;fill-rule:nonzero;stroke:none"
       id="rect2990"
       width="302.45715"
       height="212.68188"
       x="0"
       y="-1.5443721"
       transform="translate(155.71431,107.86221)" />
    <g
       style="font-size:40px;font-style:normal;font-weight:normal;line-height:125%;letter-spacing:0px;word-spacing:0px;fill:#ffffff;fill-opacity:1;stroke:none;font-family:Bitstream Vera Sans"
       id="text3808">
      <path
         d="m 359.27921,249.15747 -3.02454,0 0,-6.5885 -4.93176,0 0,18.68445 3.02453,0 0,3.23987 -9.54052,0 0,-3.23987 2.95202,0 0,-18.68445 -4.93176,0 0,6.5885 -3.02454,0 0,-9.61194 19.47657,0 z"
         style="font-size:36px;font-variant:normal;font-stretch:normal;font-family:Rockland;-inkscape-font-specification:Rockland;fill:#ffffff"
         id="path2991" />
      <path
         d="m 385.24319,264.49329 -9.57568,0 0,-3.23987 3.02454,0 0,-8.63965 -10.83692,0 0,8.63965 3.09595,0 0,3.23987 -9.61194,0 0,-3.23987 2.95203,0 0,-18.68445 -2.95203,0 0,-3.02344 9.61194,0 0,3.02344 -3.09595,0 0,7.09277 10.83692,0 0,-7.09277 -3.02454,0 0,-3.02344 9.57568,0 0,3.02344 -2.95202,0 0,18.68445 2.95202,0 z"
         style="font-size:36px;font-variant:normal;font-stretch:normal;font-family:Rockland;-inkscape-font-specification:Rockland;fill:#ffffff"
         id="path2993" />
      <path
         d="m 419.26785,242.56897 -3.16736,0 -5.40087,21.92432 -3.31128,0 -5.36463,-19.83582 -4.82409,19.83582 -3.31128,0 -5.90406,-21.92432 -2.70044,0 0,-3.02344 9.21643,0 0,3.02344 -3.09594,0 4.28357,16.70471 4.10449,-16.70471 -3.09595,0 0,-3.02344 11.23132,0 0,3.02344 -3.09594,0 4.31982,16.70471 4.06824,-16.70471 -3.09595,0 0,-3.02344 9.14392,0 z"
         style="font-size:36px;font-variant:normal;font-stretch:normal;font-family:Rockland;-inkscape-font-specification:Rockland;fill:#ffffff"
         id="path2995" />
    </g>
    <path
       style="fill:#ffff00;fill-opacity:1;fill-rule:nonzero;stroke:#000000;stroke-width:10.64509583;stroke-miterlimit:4;stroke-opacity:1"
       d="m 170.67731,124.48663 272.95813,0 0,152.62458 -272.95813,0 0,36.33752 z"
       id="rect3002"
       inkscape:connector-curvature="0"
       sodipodi:nodetypes="cccccc" />
    <g
       style="font-size:40px;font-style:normal;font-weight:normal;line-height:125%;letter-spacing:0px;word-spacing:0px;fill:#000000;fill-opacity:1;stroke:none;font-family:Bitstream Vera Sans"
       id="text3839">
      <path
         d="m 292.75539,189.47195 c -5e-5,5.58402 -1.68389,10.1221 -5.05152,13.61426 -3.58744,3.71194 -8.5159,5.56789 -14.7854,5.56787 l -6.40942,0 0,5.89527 4.68017,0 0,12.53759 -25.40478,0 0,-12.53759 5.94141,0 0,-32.51514 -5.94141,0 0,-12.35083 25.91894,0 c 6.92429,6e-5 12.24166,1.90289 15.95215,5.7085 3.39986,3.49223 5.09981,8.18559 5.09986,14.08007 z m -14.26905,-0.32739 c -3e-5,-2.11959 -0.76395,-3.75655 -2.29174,-4.91089 -1.37259,-1.02974 -3.10404,-1.54463 -5.19434,-1.54467 l -4.67798,0 0,13.05395 3.32227,0 c 2.4946,3e-5 4.50656,-0.4526 6.03589,-1.35791 1.87057,-1.12204 2.80587,-2.86886 2.8059,-5.24048 z"
         style="font-size:72px;font-variant:normal;font-weight:bold;font-stretch:normal;font-family:Lubalin Graph;-inkscape-font-specification:Lubalin Graph Bold"
         id="path3844" />
      <path
         d="m 342.67946,206.03494 c -5e-5,6.23732 -2.30791,11.53932 -6.92359,15.90601 -4.61575,4.3667 -10.08914,6.55005 -16.42016,6.55005 -6.23879,0 -11.56459,-2.25366 -15.97742,-6.76099 -4.41284,-4.50731 -6.61926,-9.91038 -6.61926,-16.20923 0,-6.23874 2.29211,-11.5726 6.87634,-16.00158 4.58422,-4.42892 10.05797,-6.64339 16.42127,-6.64344 6.20651,5e-5 11.53194,2.28483 15.97631,6.85437 4.44429,4.56962 6.66646,10.00455 6.66651,16.30481 z m -13.23853,-0.88989 c -3e-5,-2.65134 -0.97488,-4.90464 -2.92456,-6.75989 -1.94973,-1.85519 -4.28103,-2.7828 -6.99389,-2.78283 -2.71438,3e-5 -4.99148,1.05252 -6.8313,3.15747 -1.83986,2.105 -2.75978,4.57692 -2.75977,7.41577 -1e-5,2.58839 0.96678,4.8025 2.90039,6.64233 1.93358,1.83986 4.22605,2.75978 6.87744,2.75977 2.74509,10e-6 5.05332,-0.99792 6.92469,-2.99378 1.8713,-1.99583 2.80697,-4.47544 2.807,-7.43884 z"
         style="font-size:72px;font-variant:normal;font-weight:bold;font-stretch:normal;font-family:Lubalin Graph;-inkscape-font-specification:Lubalin Graph Bold"
         id="path3846" />
      <path
         d="m 369.81789,227.27371 -22.64283,0 0,-12.72436 4.86695,0 0,-32.37451 -4.86695,0 0,-12.49146 18.10547,0 0,44.86597 4.53736,0 z"
         style="font-size:72px;font-variant:normal;font-weight:bold;font-stretch:normal;font-family:Lubalin Graph;-inkscape-font-specification:Lubalin Graph Bold"
         id="path3848" />
    </g>
  </g>
</svg>
