<?xml version="1.0" encoding="UTF-8" standalone="no"?>
<!-- Created with Inkscape (http://www.inkscape.org/) -->

<svg
   xmlns:dc="http://purl.org/dc/elements/1.1/"
   xmlns:cc="http://creativecommons.org/ns#"
   xmlns:rdf="http://www.w3.org/1999/02/22-rdf-syntax-ns#"
   xmlns:svg="http://www.w3.org/2000/svg"
   xmlns="http://www.w3.org/2000/svg"
   xmlns:sodipodi="http://sodipodi.sourceforge.net/DTD/sodipodi-0.dtd"
   xmlns:inkscape="http://www.inkscape.org/namespaces/inkscape"
   width="300"
   height="209"
   id="svg2"
   version="1.1"
   inkscape:version="0.48.2 r9819"
   sodipodi:docname="SandSack.svg">
  <defs
     id="defs4" />
  <sodipodi:namedview
     id="base"
     pagecolor="#ffffff"
     bordercolor="#666666"
     borderopacity="1.0"
     inkscape:pageopacity="0.0"
     inkscape:pageshadow="2"
     inkscape:zoom="0.93566975"
     inkscape:cx="-86.02468"
     inkscape:cy="139.94915"
     inkscape:document-units="px"
     inkscape:current-layer="layer1"
     showgrid="false"
     fit-margin-top="0"
     fit-margin-left="0"
     fit-margin-right="0"
     fit-margin-bottom="0"
     inkscape:window-width="1209"
     inkscape:window-height="618"
     inkscape:window-x="18"
     inkscape:window-y="17"
     inkscape:window-maximized="0" />
  <metadata
     id="metadata7">
    <rdf:RDF>
      <cc:Work
         rdf:about="">
        <dc:format>image/svg+xml</dc:format>
        <dc:type
           rdf:resource="http://purl.org/dc/dcmitype/StillImage" />
        <dc:title />
      </cc:Work>
    </rdf:RDF>
  </metadata>
  <g
     inkscape:label="Ebene 1"
     inkscape:groupmode="layer"
     id="layer1"
     transform="translate(-155.71431,-107.86221)">
    <path
       transform="translate(155.71431,107.86221)"
       style="fill:#ffffff;fill-opacity:0.49615383;fill-rule:nonzero;stroke:none"
       d="m 0,-1.5443721 302.45715,0 0,212.6818821 -302.45715,0 z"
       id="rect2990" />
    <path
       sodipodi:type="arc"
       style="fill:#ffff00;fill-opacity:1;stroke:#000000;stroke-width:10;stroke-miterlimit:4;stroke-opacity:1;stroke-dasharray:none"
       id="path3084"
       sodipodi:cx="115.95972"
       sodipodi:cy="101.59031"
       sodipodi:rx="83.897125"
       sodipodi:ry="84.965874"
       d="m 199.85684,101.59031 c 0,46.92536 -37.56202,84.96587 -83.89712,84.96587 -46.335106,0 -83.897128,-38.04051 -83.897128,-84.96587 0,-46.925357 37.562022,-84.965875 83.897128,-84.965875 46.3351,0 83.89712,38.040518 83.89712,84.965875 z"
       transform="matrix(1.0302438,0,0,1.023574,185.87298,111.87983)" />
    <path
       style="fill:#000000;fill-opacity:1;stroke:none"
       d="m 222.69718,254.88721 c 14.09757,32.14866 45.33612,54.5 81.58084,54.5 36.2442,0 67.45254,-22.35208 81.5504,-54.5 l -163.13124,0 z"
       id="path3859"
       inkscape:connector-curvature="0" />
    <g
       style="font-size:40px;font-style:normal;font-weight:normal;line-height:125%;letter-spacing:0px;word-spacing:0px;fill:#000000;fill-opacity:1;stroke:none;font-family:Sans"
       id="text3864">
      <path
         d="m 265.96258,195.97224 c -3e-5,2.99242 -1.10551,5.57505 -3.31644,7.74788 -2.19192,2.15378 -4.75549,3.23067 -7.69071,3.23067 -2.11567,0 -4.09791,-0.67663 -5.94672,-2.02989 l 0,1.17219 -7.23327,0 0,-11.26445 7.97661,0 0,0.82911 c -1e-5,1.23891 0.42884,2.20143 1.28655,2.88759 0.72427,0.5718 1.56291,0.8577 2.51592,0.8577 0.19059,0 0.33354,-0.01 0.42885,-0.0286 0.87674,-0.0953 1.61055,-0.46697 2.20143,-1.11501 0.59084,-0.64804 0.88627,-1.41043 0.88629,-2.2872 -2e-5,-0.76239 -0.31451,-1.41043 -0.94347,-1.94412 -0.45746,-0.40025 -1.17221,-0.77192 -2.14425,-1.11501 l -5.40351,-2.02989 c -2.23002,-0.81957 -3.98354,-2.06799 -5.26056,-3.74529 -1.27702,-1.69632 -1.91553,-3.68809 -1.91553,-5.97531 0,-2.97333 1.07689,-5.48925 3.23067,-7.54776 2.15377,-2.05844 4.78405,-3.08768 7.89084,-3.08772 1.01017,4e-5 1.90599,0.13346 2.68746,0.40026 0.78144,0.26688 1.64867,0.71479 2.60169,1.34373 l 0,-1.25796 6.69006,0 0,10.40676 -7.94802,0 c 0.019,-0.0762 0.0286,-0.20011 0.0286,-0.37167 -2e-5,-0.85767 -0.3431,-1.59148 -1.02924,-2.20143 -0.66712,-0.62895 -1.43904,-0.94344 -2.31579,-0.94347 -0.81959,3e-5 -1.52481,0.30499 -2.11566,0.91488 -0.57181,0.59089 -0.85771,1.29611 -0.8577,2.11566 -1e-5,0.74336 0.27636,1.38187 0.82911,1.91553 0.45743,0.45746 1.10547,0.8196 1.94412,1.08642 l 4.34568,1.48668 c 2.64932,0.89584 4.69827,2.16333 6.14685,3.80247 1.62007,1.82977 2.43012,4.07885 2.43015,6.74724"
         style="font-size:44px;font-variant:normal;font-weight:bold;font-stretch:normal;font-family:Lubalin Graph;-inkscape-font-specification:Lubalin Graph Bold"
         id="path3001"
         inkscape:connector-curvature="0" />
      <path
         d="m 299.9515,206.20745 -10.97856,0 0,-2.02989 c -1.14362,0.81959 -2.21098,1.41997 -3.20208,1.80117 -0.97207,0.36214 -2.09661,0.54321 -3.37362,0.54321 -3.86919,0 -7.15703,-1.27702 -9.86354,-3.83106 -2.70653,-2.57309 -4.05978,-5.72751 -4.05978,-9.46328 0,-3.85011 1.3056,-7.1856 3.91683,-10.0065 2.63027,-2.83991 5.82281,-4.25988 9.57764,-4.25991 1.48667,3e-5 2.7351,0.19063 3.74529,0.5718 0.74332,0.28593 1.76303,0.87679 3.05913,1.77258 l 0,-1.80117 11.17869,0 0,7.34763 -2.88759,0 0,11.57895 2.88759,0 0,7.77647 m -10.97856,-13.29434 c -2e-5,-1.71539 -0.59088,-3.19254 -1.77258,-4.43145 -1.16268,-1.23888 -2.58264,-1.85833 -4.25991,-1.85835 -1.65823,2e-5 -3.10679,0.57182 -4.34567,1.7154 -1.21985,1.12455 -1.82977,2.5064 -1.82976,4.14555 -10e-6,1.73447 0.57179,3.23068 1.7154,4.48863 1.14358,1.25796 2.55402,1.88694 4.23131,1.88694 1.69633,0 3.16394,-0.5718 4.40286,-1.7154 1.23888,-1.14359 1.85833,-2.55403 1.85835,-4.23132"
         style="font-size:44px;font-variant:normal;font-weight:bold;font-stretch:normal;font-family:Lubalin Graph;-inkscape-font-specification:Lubalin Graph Bold"
         id="path3003"
         inkscape:connector-curvature="0" />
      <path
         d="m 333.55424,206.09309 -11.1501,0 0,-15.32423 c -2e-5,-1.29607 -0.21921,-2.29671 -0.65757,-3.00195 -0.57182,-0.91486 -1.53435,-1.3723 -2.88759,-1.37232 -0.26686,2e-5 -0.47652,0.01 -0.62898,0.0286 -1.21986,0.11438 -2.22051,0.63853 -3.00195,1.57245 -0.76241,0.93395 -1.14361,2.03943 -1.1436,3.31644 l 0,7.11891 2.5731,0 0,7.66211 -13.83756,0 0,-7.66211 3.20208,0 0,-11.57895 -3.20208,0 0,-7.34763 11.17869,0 0,2.65887 c 0.81957,-1.16264 1.82022,-1.98221 3.00195,-2.45874 1.20076,-0.49553 2.6112,-0.74331 4.23132,-0.74334 3.43077,3e-5 5.95622,1.14363 7.57635,3.4308 1.31511,1.8679 1.97268,4.3457 1.97271,7.4334 l 0,8.60559 2.77323,0 0,7.66211"
         style="font-size:44px;font-variant:normal;font-weight:bold;font-stretch:normal;font-family:Lubalin Graph;-inkscape-font-specification:Lubalin Graph Bold"
         id="path3005"
         inkscape:connector-curvature="0" />
      <path
         d="m 368.29923,206.09309 -11.1501,0 0,-2.45874 c -1.21986,0.95301 -2.26816,1.6201 -3.1449,2.0013 -1.06737,0.45744 -2.28721,0.68616 -3.65952,0.68616 -3.77389,0 -7.04267,-1.32466 -9.80636,-3.97401 -2.74465,-2.66839 -4.11696,-5.88952 -4.11696,-9.66341 0,-3.81198 1.32466,-7.06171 3.97401,-9.74919 2.66839,-2.70649 5.9467,-4.05975 9.83495,-4.05978 1.33419,3e-5 2.64933,0.25734 3.94542,0.77193 1.12452,0.45747 2.0394,1.01021 2.74464,1.65822 l 0,-2.65887 -2.74464,0 0,-7.63353 11.1501,0 0,27.41781 2.97336,0 0,7.66211 m -11.1501,-13.60883 c -2e-5,-1.71539 -0.61947,-3.17348 -1.85835,-4.37427 -1.23892,-1.20076 -2.71606,-1.80115 -4.43145,-1.80117 -1.69635,2e-5 -3.14491,0.64806 -4.34567,1.94412 -1.20079,1.29609 -1.80118,2.81136 -1.80117,4.54581 -10e-6,1.63917 0.58132,3.05914 1.74399,4.25991 1.16264,1.20078 2.56355,1.80117 4.20272,1.80117 1.77257,0 3.29736,-0.61945 4.5744,-1.85835 1.277,-1.23889 1.91551,-2.74463 1.91553,-4.51722"
         style="font-size:44px;font-variant:normal;font-weight:bold;font-stretch:normal;font-family:Lubalin Graph;-inkscape-font-specification:Lubalin Graph Bold"
         id="path3007"
         inkscape:connector-curvature="0" />
      <path
         d="m 265.96258,236.97224 c -3e-5,2.99242 -1.10551,5.57505 -3.31644,7.74788 -2.19192,2.15378 -4.75549,3.23067 -7.69071,3.23067 -2.11567,0 -4.09791,-0.67663 -5.94672,-2.02989 l 0,1.17219 -7.23327,0 0,-11.26445 7.97661,0 0,0.82911 c -1e-5,1.23891 0.42884,2.20143 1.28655,2.88759 0.72427,0.5718 1.56291,0.8577 2.51592,0.8577 0.19059,0 0.33354,-0.01 0.42885,-0.0286 0.87674,-0.0953 1.61055,-0.46697 2.20143,-1.11501 0.59084,-0.64804 0.88627,-1.41043 0.88629,-2.2872 -2e-5,-0.76239 -0.31451,-1.41043 -0.94347,-1.94412 -0.45746,-0.40025 -1.17221,-0.77192 -2.14425,-1.11501 l -5.40351,-2.02989 c -2.23002,-0.81957 -3.98354,-2.06799 -5.26056,-3.74529 -1.27702,-1.69632 -1.91553,-3.68809 -1.91553,-5.97531 0,-2.97333 1.07689,-5.48925 3.23067,-7.54776 2.15377,-2.05844 4.78405,-3.08768 7.89084,-3.08772 1.01017,4e-5 1.90599,0.13346 2.68746,0.40026 0.78144,0.26688 1.64867,0.71479 2.60169,1.34373 l 0,-1.25796 6.69006,0 0,10.40676 -7.94802,0 c 0.019,-0.0762 0.0286,-0.20011 0.0286,-0.37167 -2e-5,-0.85767 -0.3431,-1.59148 -1.02924,-2.20143 -0.66712,-0.62895 -1.43904,-0.94344 -2.31579,-0.94347 -0.81959,3e-5 -1.52481,0.30499 -2.11566,0.91488 -0.57181,0.59089 -0.85771,1.29611 -0.8577,2.11566 -1e-5,0.74336 0.27636,1.38187 0.82911,1.91553 0.45743,0.45746 1.10547,0.8196 1.94412,1.08642 l 4.34568,1.48668 c 2.64932,0.89584 4.69827,2.16333 6.14685,3.80247 1.62007,1.82977 2.43012,4.07885 2.43015,6.74724"
         style="font-size:44px;font-variant:normal;font-weight:bold;font-stretch:normal;font-family:Lubalin Graph;-inkscape-font-specification:Lubalin Graph Bold"
         id="path3009"
         inkscape:connector-curvature="0" />
      <path
         d="m 299.9515,247.20745 -10.97856,0 0,-2.02989 c -1.14362,0.81959 -2.21098,1.41997 -3.20208,1.80117 -0.97207,0.36214 -2.09661,0.54321 -3.37362,0.54321 -3.86919,0 -7.15703,-1.27702 -9.86354,-3.83106 -2.70653,-2.57309 -4.05978,-5.72751 -4.05978,-9.46328 0,-3.85011 1.3056,-7.1856 3.91683,-10.0065 2.63027,-2.83991 5.82281,-4.25988 9.57764,-4.25991 1.48667,3e-5 2.7351,0.19063 3.74529,0.5718 0.74332,0.28593 1.76303,0.87679 3.05913,1.77258 l 0,-1.80117 11.17869,0 0,7.34763 -2.88759,0 0,11.57895 2.88759,0 0,7.77647 m -10.97856,-13.29434 c -2e-5,-1.71539 -0.59088,-3.19254 -1.77258,-4.43145 -1.16268,-1.23888 -2.58264,-1.85833 -4.25991,-1.85835 -1.65823,2e-5 -3.10679,0.57182 -4.34567,1.7154 -1.21985,1.12455 -1.82977,2.5064 -1.82976,4.14555 -10e-6,1.73447 0.57179,3.23068 1.7154,4.48863 1.14358,1.25796 2.55402,1.88694 4.23131,1.88694 1.69633,0 3.16394,-0.5718 4.40286,-1.7154 1.23888,-1.14359 1.85833,-2.55403 1.85835,-4.23132"
         style="font-size:44px;font-variant:normal;font-weight:bold;font-stretch:normal;font-family:Lubalin Graph;-inkscape-font-specification:Lubalin Graph Bold"
         id="path3011"
         inkscape:connector-curvature="0" />
      <path
         d="m 330.20921,237.51545 c -0.24781,2.55404 -1.63919,4.90795 -4.17414,7.06172 -2.64936,2.24908 -5.61319,3.37362 -8.89149,3.37362 -4.00261,0 -7.41435,-1.4295 -10.23522,-4.2885 -2.82088,-2.85899 -4.23132,-6.28978 -4.23132,-10.29239 0,-3.60232 1.25796,-6.73769 3.77388,-9.40611 2.51591,-2.66837 5.50833,-4.00257 8.97726,-4.0026 1.4676,3e-5 2.82086,0.20969 4.05978,0.62898 1.10546,0.36217 2.08705,0.88632 2.94477,1.57245 l 0,-1.65822 6.91878,0 0,9.66342 -7.66212,0 c -1.12456,-1.69632 -2.83043,-2.54449 -5.11761,-2.54451 -1.67729,2e-5 -3.08773,0.63853 -4.23132,1.91553 -1.12455,1.25797 -1.68682,2.74465 -1.68681,4.46004 -1e-5,1.62011 0.58132,3.02102 1.74399,4.20273 1.16265,1.18172 2.56356,1.77258 4.20273,1.77258 1.10546,0 2.05846,-0.1906 2.859,-0.5718 0.8005,-0.40026 1.51525,-1.02924 2.14425,-1.88694 l 8.60559,0"
         style="font-size:44px;font-variant:normal;font-weight:bold;font-stretch:normal;font-family:Lubalin Graph;-inkscape-font-specification:Lubalin Graph Bold"
         id="path3013"
         inkscape:connector-curvature="0" />
      <path
         d="m 361.68841,247.09309 -8.80572,0 -8.63418,-11.06432 0,11.06432 -11.26445,0 0,-7.66211 3.08771,0 0,-19.78428 -3.08771,0 0,-7.63353 11.06432,0 0,19.98441 4.88889,-5.00325 -2.34438,0 0,-6.48993 13.83756,0 0,7.34763 -2.23002,0 -5.74659,5.718 5.51787,5.86095 3.7167,0 0,7.66211"
         style="font-size:44px;font-variant:normal;font-weight:bold;font-stretch:normal;font-family:Lubalin Graph;-inkscape-font-specification:Lubalin Graph Bold"
         id="path3015"
         inkscape:connector-curvature="0" />
    </g>
  </g>
</svg>
