<?xml version="1.0" encoding="UTF-8" standalone="no"?>
<!-- Created with Inkscape (http://www.inkscape.org/) -->

<svg
   xmlns:dc="http://purl.org/dc/elements/1.1/"
   xmlns:cc="http://creativecommons.org/ns#"
   xmlns:rdf="http://www.w3.org/1999/02/22-rdf-syntax-ns#"
   xmlns:svg="http://www.w3.org/2000/svg"
   xmlns="http://www.w3.org/2000/svg"
   xmlns:sodipodi="http://sodipodi.sourceforge.net/DTD/sodipodi-0.dtd"
   xmlns:inkscape="http://www.inkscape.org/namespaces/inkscape"
   width="300"
   height="209"
   id="svg2"
   version="1.1"
   inkscape:version="0.48.2 r9819"
   sodipodi:docname="Fahrzeug.svg">
  <defs
     id="defs4" />
  <sodipodi:namedview
     id="base"
     pagecolor="#ffffff"
     bordercolor="#666666"
     borderopacity="1.0"
     inkscape:pageopacity="0.0"
     inkscape:pageshadow="2"
     inkscape:zoom="0.93566975"
     inkscape:cx="-87.25166"
     inkscape:cy="139.94915"
     inkscape:document-units="px"
     inkscape:current-layer="text2991"
     showgrid="false"
     fit-margin-top="0"
     fit-margin-left="0"
     fit-margin-right="0"
     fit-margin-bottom="0"
     inkscape:window-width="1180"
     inkscape:window-height="575"
     inkscape:window-x="33"
     inkscape:window-y="225"
     inkscape:window-maximized="0" />
  <metadata
     id="metadata7">
    <rdf:RDF>
      <cc:Work
         rdf:about="">
        <dc:format>image/svg+xml</dc:format>
        <dc:type
           rdf:resource="http://purl.org/dc/dcmitype/StillImage" />
        <dc:title />
      </cc:Work>
    </rdf:RDF>
  </metadata>
  <g
     inkscape:label="Ebene 1"
     inkscape:groupmode="layer"
     id="layer1"
     transform="translate(-155.71431,-107.86221)">
    <rect
       style="fill:#ffffff;fill-opacity:0.49615383;fill-rule:nonzero;stroke:none"
       id="rect2990"
       width="302.45715"
       height="212.68188"
       x="0"
       y="-1.5443721"
       transform="translate(155.71431,107.86221)" />
    <path
       sodipodi:type="arc"
       style="fill:#ffffff;stroke:#000000;stroke-width:8.89999961999999910;stroke-miterlimit:4;stroke-opacity:1;stroke-dasharray:none"
       id="path3010"
       sodipodi:cx="420.55435"
       sodipodi:cy="193.50308"
       sodipodi:rx="12.290661"
       sodipodi:ry="11.221909"
       d="m 432.84501,193.50308 c 0,6.19769 -5.50271,11.22191 -12.29066,11.22191 -6.78794,0 -12.29066,-5.02422 -12.29066,-11.22191 0,-6.19769 5.50272,-11.22191 12.29066,-11.22191 6.78795,0 12.29066,5.02422 12.29066,11.22191 z"
       transform="matrix(1,0,0,1.083456,-19.561209,86.501677)" />
    <path
       style="fill:#ffffff;stroke:#000000;stroke-width:3.30029344999999990;stroke-linecap:round;stroke-linejoin:round;stroke-miterlimit:4;stroke-opacity:1;fill-opacity:1"
       d="m 164.09307,115.93661 c 94.40559,41.09922 193.65433,38.14032 283.59584,0 l 0,165.65674 -283.59584,0 z"
       id="rect3780"
       inkscape:connector-curvature="0"
       sodipodi:nodetypes="ccccc" />
    <path
       sodipodi:type="arc"
       style="fill:#ffffff;stroke:#000000;stroke-width:8.89999961999999910;stroke-miterlimit:4;stroke-opacity:1;stroke-dasharray:none"
       id="path3010-1"
       sodipodi:cx="420.55435"
       sodipodi:cy="193.50308"
       sodipodi:rx="12.290661"
       sodipodi:ry="11.221909"
       d="m 432.84501,193.50308 c 0,6.19769 -5.50271,11.22191 -12.29066,11.22191 -6.78794,0 -12.29066,-5.02422 -12.29066,-11.22191 0,-6.19769 5.50272,-11.22191 12.29066,-11.22191 6.78795,0 12.29066,5.02422 12.29066,11.22191 z"
       transform="matrix(1,0,0,1.083456,-214.60864,86.903824)" />
    <path
       style="fill:#0010ff;fill-opacity:1;stroke:none"
       d="m 173.88312,134.10542 c 76.71331,29.46982 170.2901,28.12425 261.84453,0 l 0,135.73165 -261.84453,0 z"
       id="rect3801"
       inkscape:connector-curvature="0"
       sodipodi:nodetypes="ccccc" />
    <g
       style="font-size:40px;font-style:normal;font-weight:normal;line-height:125%;letter-spacing:0px;word-spacing:0px;fill:#ffffff;fill-opacity:1;stroke:none;font-family:Bitstream Vera Sans"
       id="text2991">
      <path
         d="m 352.25214,247.8595 -4.94825,0 0,-3.09864 -2.41211,0 0,14.16016 2.47461,0 0,5.57227 -11.35351,0 0,-5.57227 2.3916,0 0,-14.16016 -2.3916,0 0,3.18164 -5.11426,0 0,-8.96191 21.35352,0 z"
         style="font-size:32px;font-variant:normal;font-weight:bold;font-stretch:normal;font-family:Lubalin Graph;-inkscape-font-specification:Lubalin Graph Bold;fill:#ffffff"
         id="path2996" />
      <path
         d="m 380.32635,264.49329 -11.51855,0 0,-5.57227 2.47363,0 0,-4.26269 -7.87988,0 0,4.26269 2.47461,0 0,5.57227 -11.60254,0 0,-5.57227 2.70313,0 0,-14.45117 -2.70313,0 0,-5.48926 11.60254,0 0,5.48926 -2.47461,0 0,3.86719 7.87988,0 0,-3.86719 -2.47363,0 0,-5.48926 11.51855,0 0,5.48926 -2.32812,0 0,14.45117 2.32812,0 z"
         style="font-size:32px;font-variant:normal;font-weight:bold;font-stretch:normal;font-family:Lubalin Graph;-inkscape-font-specification:Lubalin Graph Bold;fill:#ffffff"
         id="path2998" />
      <path
         d="m 417.43378,244.46985 -2.53711,0 -5.34375,20.02344 -5.63477,0 -4.0332,-13.93067 -3.95117,13.93067 -5.78028,0 -5.73828,-20.02344 -2.16308,0 0,-5.48926 11.41504,0 0,5.48926 -2.59864,0 2.22461,8.6084 3.80469,-14.09766 5.36523,0 4.17871,14.01465 1.95508,-8.52539 -2.41211,0 0,-5.48926 11.22852,0 z"
         style="font-size:32px;font-variant:normal;font-weight:bold;font-stretch:normal;font-family:Lubalin Graph;-inkscape-font-specification:Lubalin Graph Bold;fill:#ffffff"
         id="path3000" />
    </g>
  </g>
</svg>
