<?xml version="1.0" encoding="UTF-8" standalone="no"?>
<!-- Created with Inkscape (http://www.inkscape.org/) -->

<svg
   xmlns:dc="http://purl.org/dc/elements/1.1/"
   xmlns:cc="http://creativecommons.org/ns#"
   xmlns:rdf="http://www.w3.org/1999/02/22-rdf-syntax-ns#"
   xmlns:svg="http://www.w3.org/2000/svg"
   xmlns="http://www.w3.org/2000/svg"
   xmlns:sodipodi="http://sodipodi.sourceforge.net/DTD/sodipodi-0.dtd"
   xmlns:inkscape="http://www.inkscape.org/namespaces/inkscape"
   width="300"
   height="209"
   id="svg2"
   version="1.1"
   inkscape:version="0.48.2 r9819"
   sodipodi:docname="Fahrzeug.svg">
  <defs
     id="defs4" />
  <sodipodi:namedview
     id="base"
     pagecolor="#ffffff"
     bordercolor="#666666"
     borderopacity="1.0"
     inkscape:pageopacity="0.0"
     inkscape:pageshadow="2"
     inkscape:zoom="0.93566975"
     inkscape:cx="-87.25166"
     inkscape:cy="139.94915"
     inkscape:document-units="px"
     inkscape:current-layer="layer1"
     showgrid="false"
     fit-margin-top="0"
     fit-margin-left="0"
     fit-margin-right="0"
     fit-margin-bottom="0"
     inkscape:window-width="1180"
     inkscape:window-height="575"
     inkscape:window-x="33"
     inkscape:window-y="225"
     inkscape:window-maximized="0" />
  <metadata
     id="metadata7">
    <rdf:RDF>
      <cc:Work
         rdf:about="">
        <dc:format>image/svg+xml</dc:format>
        <dc:type
           rdf:resource="http://purl.org/dc/dcmitype/StillImage" />
        <dc:title />
      </cc:Work>
    </rdf:RDF>
  </metadata>
  <g
     inkscape:label="Ebene 1"
     inkscape:groupmode="layer"
     id="layer1"
     transform="translate(-155.71431,-107.86221)">
    <rect
       style="fill:#ffffff;fill-opacity:0.49615383;fill-rule:nonzero;stroke:none"
       id="rect2990"
       width="302.45715"
       height="212.68188"
       x="0"
       y="-1.5443721"
       transform="translate(155.71431,107.86221)" />
    <path
       sodipodi:type="arc"
       style="fill:#ffffff;stroke:#000000;stroke-width:8.89999961999999910;stroke-miterlimit:4;stroke-opacity:1;stroke-dasharray:none"
       id="path3010"
       sodipodi:cx="420.55435"
       sodipodi:cy="193.50308"
       sodipodi:rx="12.290661"
       sodipodi:ry="11.221909"
       d="m 432.84501,193.50308 c 0,6.19769 -5.50271,11.22191 -12.29066,11.22191 -6.78794,0 -12.29066,-5.02422 -12.29066,-11.22191 0,-6.19769 5.50272,-11.22191 12.29066,-11.22191 6.78795,0 12.29066,5.02422 12.29066,11.22191 z"
       transform="matrix(1,0,0,1.083456,-19.561209,86.501677)" />
    <path
       style="fill:#ffffff;stroke:#000000;stroke-width:3.30029344999999990;stroke-linecap:round;stroke-linejoin:round;stroke-miterlimit:4;stroke-opacity:1;fill-opacity:1"
       d="m 164.09307,115.93661 c 94.40559,41.09922 193.65433,38.14032 283.59584,0 l 0,165.65674 -283.59584,0 z"
       id="rect3780"
       inkscape:connector-curvature="0"
       sodipodi:nodetypes="ccccc" />
    <path
       sodipodi:type="arc"
       style="fill:#ffffff;stroke:#000000;stroke-width:8.89999961999999910;stroke-miterlimit:4;stroke-opacity:1;stroke-dasharray:none"
       id="path3010-1"
       sodipodi:cx="420.55435"
       sodipodi:cy="193.50308"
       sodipodi:rx="12.290661"
       sodipodi:ry="11.221909"
       d="m 432.84501,193.50308 c 0,6.19769 -5.50271,11.22191 -12.29066,11.22191 -6.78794,0 -12.29066,-5.02422 -12.29066,-11.22191 0,-6.19769 5.50272,-11.22191 12.29066,-11.22191 6.78795,0 12.29066,5.02422 12.29066,11.22191 z"
       transform="matrix(1,0,0,1.083456,-214.60864,86.903824)" />
    <path
       style="fill:#0010ff;fill-opacity:1;stroke:none"
       d="m 173.88312,134.10542 c 76.71331,29.46982 170.2901,28.12425 261.84453,0 l 0,135.73165 -261.84453,0 z"
       id="rect3801"
       inkscape:connector-curvature="0"
       sodipodi:nodetypes="ccccc" />
    <g
       style="font-size:40px;font-style:normal;font-weight:normal;line-height:125%;letter-spacing:0px;word-spacing:0px;fill:#ffffff;fill-opacity:1;stroke:none;font-family:Bitstream Vera Sans"
       id="text3808">
      <path
         d="m 359.27921,249.15747 -3.02454,0 0,-6.5885 -4.93176,0 0,18.68445 3.02453,0 0,3.23987 -9.54052,0 0,-3.23987 2.95202,0 0,-18.68445 -4.93176,0 0,6.5885 -3.02454,0 0,-9.61194 19.47657,0 z"
         style="font-size:36px;font-variant:normal;font-stretch:normal;font-family:Rockland;-inkscape-font-specification:Rockland;fill:#ffffff"
         id="path2991" />
      <path
         d="m 385.24319,264.49329 -9.57568,0 0,-3.23987 3.02454,0 0,-8.63965 -10.83692,0 0,8.63965 3.09595,0 0,3.23987 -9.61194,0 0,-3.23987 2.95203,0 0,-18.68445 -2.95203,0 0,-3.02344 9.61194,0 0,3.02344 -3.09595,0 0,7.09277 10.83692,0 0,-7.09277 -3.02454,0 0,-3.02344 9.57568,0 0,3.02344 -2.95202,0 0,18.68445 2.95202,0 z"
         style="font-size:36px;font-variant:normal;font-stretch:normal;font-family:Rockland;-inkscape-font-specification:Rockland;fill:#ffffff"
         id="path2993" />
      <path
         d="m 419.26785,242.56897 -3.16736,0 -5.40087,21.92432 -3.31128,0 -5.36463,-19.83582 -4.82409,19.83582 -3.31128,0 -5.90406,-21.92432 -2.70044,0 0,-3.02344 9.21643,0 0,3.02344 -3.09594,0 4.28357,16.70471 4.10449,-16.70471 -3.09595,0 0,-3.02344 11.23132,0 0,3.02344 -3.09594,0 4.31982,16.70471 4.06824,-16.70471 -3.09595,0 0,-3.02344 9.14392,0 z"
         style="font-size:36px;font-variant:normal;font-stretch:normal;font-family:Rockland;-inkscape-font-specification:Rockland;fill:#ffffff"
         id="path2995" />
    </g>
  </g>
</svg>
