<?xml version="1.0" encoding="UTF-8" standalone="no"?>
<!-- Created with Inkscape (http://www.inkscape.org/) -->

<svg
   xmlns:dc="http://purl.org/dc/elements/1.1/"
   xmlns:cc="http://creativecommons.org/ns#"
   xmlns:rdf="http://www.w3.org/1999/02/22-rdf-syntax-ns#"
   xmlns:svg="http://www.w3.org/2000/svg"
   xmlns="http://www.w3.org/2000/svg"
   xmlns:sodipodi="http://sodipodi.sourceforge.net/DTD/sodipodi-0.dtd"
   xmlns:inkscape="http://www.inkscape.org/namespaces/inkscape"
   width="300"
   height="209"
   id="svg2"
   version="1.1"
   inkscape:version="0.48.2 r9819"
   sodipodi:docname="FueKomKW.svg">
  <defs
     id="defs4" />
  <sodipodi:namedview
     id="base"
     pagecolor="#ffffff"
     bordercolor="#666666"
     borderopacity="1.0"
     inkscape:pageopacity="0.0"
     inkscape:pageshadow="2"
     inkscape:zoom="0.93566975"
     inkscape:cx="131.13701"
     inkscape:cy="139.94915"
     inkscape:document-units="px"
     inkscape:current-layer="layer1"
     showgrid="false"
     fit-margin-top="0"
     fit-margin-left="0"
     fit-margin-right="0"
     fit-margin-bottom="0"
     inkscape:window-width="1180"
     inkscape:window-height="575"
     inkscape:window-x="33"
     inkscape:window-y="225"
     inkscape:window-maximized="0" />
  <metadata
     id="metadata7">
    <rdf:RDF>
      <cc:Work
         rdf:about="">
        <dc:format>image/svg+xml</dc:format>
        <dc:type
           rdf:resource="http://purl.org/dc/dcmitype/StillImage" />
        <dc:title />
      </cc:Work>
    </rdf:RDF>
  </metadata>
  <g
     inkscape:label="Ebene 1"
     inkscape:groupmode="layer"
     id="layer1"
     transform="translate(-155.71431,-107.86221)">
    <rect
       style="fill:#ffffff;fill-opacity:0.49615383;fill-rule:nonzero;stroke:none"
       id="rect2998"
       width="304.59464"
       height="213.75063"
       x="-1.0687531"
       y="-1.5443721"
       transform="translate(155.71431,107.86221)" />
    <path
       sodipodi:type="arc"
       style="fill:#ffffff;stroke:#000000;stroke-width:8.89999961999999910;stroke-miterlimit:4;stroke-opacity:1;stroke-dasharray:none"
       id="path3010"
       sodipodi:cx="420.55435"
       sodipodi:cy="193.50308"
       sodipodi:rx="12.290661"
       sodipodi:ry="11.221909"
       d="m 432.84501,193.50308 c 0,6.19769 -5.50271,11.22191 -12.29066,11.22191 -6.78794,0 -12.29066,-5.02422 -12.29066,-11.22191 0,-6.19769 5.50272,-11.22191 12.29066,-11.22191 6.78795,0 12.29066,5.02422 12.29066,11.22191 z"
       transform="matrix(1,0,0,1.083456,-19.561209,86.501677)" />
    <path
       style="fill:#ffffff;stroke:#000000;stroke-width:3.30029344999999990;stroke-linecap:round;stroke-linejoin:round;stroke-miterlimit:4;stroke-opacity:1"
       d="m 164.09307,115.93661 c 94.40559,41.09922 193.65433,38.14032 283.59584,0 l 0,165.65674 -283.59584,0 z"
       id="rect3780"
       inkscape:connector-curvature="0"
       sodipodi:nodetypes="ccccc" />
    <path
       sodipodi:type="arc"
       style="fill:#ffffff;stroke:#000000;stroke-width:8.89999961999999910;stroke-miterlimit:4;stroke-opacity:1;stroke-dasharray:none"
       id="path3010-1"
       sodipodi:cx="420.55435"
       sodipodi:cy="193.50308"
       sodipodi:rx="12.290661"
       sodipodi:ry="11.221909"
       d="m 432.84501,193.50308 c 0,6.19769 -5.50271,11.22191 -12.29066,11.22191 -6.78794,0 -12.29066,-5.02422 -12.29066,-11.22191 0,-6.19769 5.50272,-11.22191 12.29066,-11.22191 6.78795,0 12.29066,5.02422 12.29066,11.22191 z"
       transform="matrix(1,0,0,1.083456,-214.60864,86.903824)" />
    <path
       style="fill:#0010ff;fill-opacity:1;stroke:none"
       d="m 173.88312,134.10542 c 76.71331,29.46982 170.2901,28.12425 261.84453,0 l 0,135.73165 -261.84453,0 z"
       id="rect3801"
       inkscape:connector-curvature="0"
       sodipodi:nodetypes="ccccc" />
    <g
       style="font-size:40px;font-style:normal;font-weight:normal;line-height:125%;letter-spacing:0px;word-spacing:0px;fill:#ffffff;fill-opacity:1;stroke:none;font-family:Bitstream Vera Sans"
       id="text3804">
      <path
         d="m 232.1006,206.49794 -3.28003,0 0,-4.84009 -10.5603,0 0,8.43994 9.32007,0 0,3.3606 -9.32007,0 0,8.95996 3.68042,0 0,3.59985 -10.92041,0 0,-3.59985 3.28003,0 0,-20.7605 -3.28003,0 0,-3.35937 21.08032,0 z"
         style="font-family:Rockland;-inkscape-font-specification:Rockland;fill:#ffffff"
         id="path2991" />
      <path
         d="m 248.95851,200.69838 c -1e-5,0.63967 -0.21994,1.14626 -0.65979,1.51977 -0.43987,0.37356 -0.95318,0.56033 -1.53992,0.56031 -0.63966,2e-5 -1.15968,-0.18675 -1.56005,-0.56031 -0.4533,-0.34665 -0.67995,-0.8801 -0.67994,-1.60034 -1e-5,-0.63962 0.22664,-1.15272 0.67994,-1.5393 0.45327,-0.38653 0.97329,-0.57981 1.56005,-0.57984 0.53303,3e-5 1.05305,0.18639 1.56006,0.55908 0.42642,0.37357 0.63964,0.92044 0.63965,1.64063 z m -7.47925,0 c -1e-5,0.61363 -0.21363,1.13365 -0.64087,1.56006 -0.50619,0.37356 -1.02621,0.56032 -1.56005,0.5603 -0.6128,2e-5 -1.11939,-0.20017 -1.51978,-0.60059 -0.45329,-0.34665 -0.67994,-0.8801 -0.67993,-1.60034 -1e-5,-0.66647 0.22013,-1.17978 0.6604,-1.53991 0.44026,-0.36008 0.95336,-0.54014 1.53931,-0.54017 0.58674,3e-5 1.10025,0.1868 1.54052,0.56031 0.44026,0.37356 0.66039,0.90701 0.6604,1.60034 z m 12.23999,25.31982 -6.16089,0 0,-2.51953 c -1.22641,0.93262 -2.37285,1.67237 -3.43933,2.21924 -1.06649,0.54688 -2.17306,0.82031 -3.3197,0.82031 l -0.80078,-0.0403 c -1.19955,-0.13346 -2.07947,-0.55339 -2.63977,-1.25977 -0.56031,-0.70637 -0.92021,-1.47298 -1.07971,-2.2998 -0.13347,-1.01318 -0.2002,-2.11995 -0.2002,-3.32031 l 0,-9.84009 -2.80029,0 0,-3.28003 6.40015,0 0,11.64063 0,0.75927 -0.0403,0.67993 c 0,1.09376 0.1534,1.99403 0.46021,2.70081 0.30679,0.70679 0.92691,1.10006 1.86035,1.17981 0.98632,0 1.89289,-0.26672 2.71973,-0.80017 0.82681,-0.53344 1.73338,-1.29333 2.71972,-2.27966 l 0,-10.60059 -2.9602,0 0,-3.28003 6.48071,0 0,16.08032 2.80029,0 z"
         style="font-family:Rockland;-inkscape-font-specification:Rockland;fill:#ffffff"
         id="path2993" />
      <path
         d="m 279.76173,226.0182 -10.96069,0 0,-3.59985 2.84058,0 -9.24073,-11.15967 9.47998,-9.60083 -3.07983,0 0,-3.35937 10.31982,0 0,3.35937 -2.79907,0 -9.00024,9.44092 9.16015,11.31958 3.28003,0 z m -14.08081,0 -10.52002,0 0,-3.59985 3.28003,0 0,-20.7605 -3.28003,0 0,-3.35937 10.52002,0 0,3.35937 -3.28003,0 0,20.7605 3.28003,0 z"
         style="font-family:Rockland;-inkscape-font-specification:Rockland;fill:#ffffff"
         id="path2995" />
      <path
         d="m 299.34181,216.37831 c -2e-5,0.77312 -0.02,1.3263 -0.0598,1.65955 -0.0399,0.33326 -0.16645,0.88664 -0.37964,1.66015 -0.21324,0.77353 -0.56663,1.58021 -1.06018,2.42005 -0.49359,0.83984 -1.19366,1.61987 -2.10022,2.34009 -0.90659,0.72021 -1.8799,1.24023 -2.91992,1.56005 -0.53306,0.21322 -1.05308,0.35991 -1.56006,0.44007 -0.50701,0.0802 -1.09376,0.12024 -1.76026,0.12024 -1.94662,0 -3.53984,-0.39348 -4.77966,-1.18042 -1.23983,-0.78695 -2.12647,-1.54033 -2.65991,-2.26014 -0.53345,-0.7198 -0.9135,-1.31306 -1.14014,-1.77978 -0.22664,-0.46671 -0.47323,-1.16007 -0.73974,-2.08008 -0.26653,-0.91999 -0.39979,-1.96675 -0.39978,-3.14026 -10e-6,-1.33299 0.19999,-2.58625 0.59997,-3.75976 0.39998,-1.17349 1.03332,-2.25361 1.90003,-3.24036 0.86669,-0.98672 1.95332,-1.75332 3.25988,-2.2998 1.30655,-0.54645 2.65319,-0.81969 4.03992,-0.81971 0.87971,2e-5 1.62617,0.0733 2.23938,0.21973 0.61319,0.1465 1.05325,0.27325 1.32019,0.38025 0.26691,0.10703 0.73363,0.33388 1.40015,0.68054 0.66648,0.3467 1.37307,0.87323 2.11975,1.57959 0.74664,0.7064 1.37998,1.74623 1.90002,3.11951 0.52,1.3733 0.78001,2.83346 0.78003,4.38049 z m -3.87939,0 c -2e-5,-1.11978 -0.18679,-2.19298 -0.56031,-3.2196 -0.37355,-1.0266 -0.85369,-1.79341 -1.44042,-2.30042 -0.58677,-0.50698 -1.12001,-0.83372 -1.59974,-0.98022 -0.47975,-0.14647 -0.87301,-0.24637 -1.17981,-0.29969 -0.30681,-0.0533 -0.63355,-0.0799 -0.98022,-0.0799 -1.1198,10e-6 -2.15984,0.26674 -3.12012,0.80017 -0.96029,0.53346 -1.70024,1.30678 -2.21985,2.31995 -0.51961,1.01319 -0.77942,2.18629 -0.77942,3.51928 0,1.30698 0.29297,2.58709 0.87891,3.84033 0.64046,1.17351 1.43391,1.96697 2.38037,2.38038 0.94644,0.41341 1.81965,0.62012 2.61963,0.62011 1.12059,1e-5 2.14741,-0.26 3.08045,-0.78003 0.933,-0.52001 1.65302,-1.26667 2.16003,-2.23999 0.50698,-0.9733 0.76048,-2.16674 0.7605,-3.58032 z"
         style="font-family:Rockland;-inkscape-font-specification:Rockland;fill:#ffffff"
         id="path2997" />
      <path
         d="m 333.17116,226.0182 -6.47949,0 0,-11.08032 0.0403,-1.43921 c -3e-5,-2.58706 -0.73367,-3.8806 -2.20093,-3.88061 -0.98635,10e-6 -1.91286,0.26002 -2.77954,0.78003 -0.86672,0.52003 -1.76678,1.24676 -2.7002,2.18017 l 0,10 2.8003,0 0,3.43994 -6.48072,0 0,-11.08032 0.0403,-0.63965 0,-0.83984 c -2e-5,-1.09374 -0.15342,-2.00723 -0.46021,-2.74048 -0.30681,-0.73322 -0.90008,-1.09984 -1.77978,-1.09985 -0.98634,10e-6 -1.84633,0.22666 -2.57996,0.67993 -0.73365,0.4533 -1.27361,0.81992 -1.61987,1.09985 -0.34628,0.27996 -0.75949,0.67344 -1.23963,1.18042 l 0,10 2.79908,0 0,3.43994 -9.19922,0 0,-3.43994 2.80029,0 0,-12.80029 -2.80029,0 0,-3.28003 6.24023,0 0,3.04077 c 1.22639,-0.98712 2.37284,-1.7407 3.43933,-2.26074 1.06648,-0.52 2.16003,-0.78001 3.28064,-0.78003 1.14664,2e-5 2.10651,0.26674 2.87964,0.80017 0.7731,0.53347 1.29312,1.30678 1.56006,2.31995 1.3867,-1.04002 2.60679,-1.83328 3.66028,-2.37976 1.05344,-0.54645 2.12664,-0.81969 3.2196,-0.81971 0.61358,2e-5 1.41355,0.18659 2.39991,0.5597 0.9863,0.37314 1.61292,1.09315 1.87988,2.16003 0.31979,1.09295 0.47971,2.53297 0.47973,4.32007 l 0,9.11987 2.8003,0 z"
         style="font-family:Rockland;-inkscape-font-specification:Rockland;fill:#ffffff"
         id="path2999" />
      <path
         d="m 359.05861,226.0182 -10.96069,0 0,-3.59985 2.84057,0 -9.24072,-11.15967 9.47998,-9.60083 -3.07983,0 0,-3.35937 10.31982,0 0,3.35937 -2.79907,0 -9.00025,9.44092 9.16016,11.31958 3.28003,0 z m -14.08081,0 -10.52002,0 0,-3.59985 3.28003,0 0,-20.7605 -3.28003,0 0,-3.35937 10.52002,0 0,3.35937 -3.28003,0 0,20.7605 3.28003,0 z"
         style="font-family:Rockland;-inkscape-font-specification:Rockland;fill:#ffffff"
         id="path3001" />
      <path
         d="m 394.83864,201.65785 -3.51929,0 -6.00098,24.36035 -3.67919,0 -5.9607,-22.03979 -5.36011,22.03979 -3.67919,0 -6.56006,-24.36035 -3.00049,0 0,-3.35937 10.24048,0 0,3.35937 -3.43994,0 4.75952,18.56079 4.56054,-18.56079 -3.43994,0 0,-3.35937 12.47925,0 0,3.35937 -3.43994,0 4.7998,18.56079 4.52027,-18.56079 -3.43994,0 0,-3.35937 10.15991,0 z"
         style="font-family:Rockland;-inkscape-font-specification:Rockland;fill:#ffffff"
         id="path3003" />
    </g>
    <g
       style="font-size:40px;font-style:normal;font-weight:normal;line-height:125%;letter-spacing:0px;word-spacing:0px;fill:#ffffff;fill-opacity:1;stroke:none;font-family:Bitstream Vera Sans"
       id="text3808">
      <path
         d="m 359.27921,249.15747 -3.02454,0 0,-6.5885 -4.93176,0 0,18.68445 3.02453,0 0,3.23987 -9.54052,0 0,-3.23987 2.95202,0 0,-18.68445 -4.93176,0 0,6.5885 -3.02454,0 0,-9.61194 19.47657,0 z"
         style="font-size:36px;font-variant:normal;font-stretch:normal;font-family:Rockland;-inkscape-font-specification:Rockland;fill:#ffffff"
         id="path3006" />
      <path
         d="m 385.24319,264.49329 -9.57568,0 0,-3.23987 3.02454,0 0,-8.63965 -10.83692,0 0,8.63965 3.09595,0 0,3.23987 -9.61194,0 0,-3.23987 2.95203,0 0,-18.68445 -2.95203,0 0,-3.02344 9.61194,0 0,3.02344 -3.09595,0 0,7.09277 10.83692,0 0,-7.09277 -3.02454,0 0,-3.02344 9.57568,0 0,3.02344 -2.95202,0 0,18.68445 2.95202,0 z"
         style="font-size:36px;font-variant:normal;font-stretch:normal;font-family:Rockland;-inkscape-font-specification:Rockland;fill:#ffffff"
         id="path3008" />
      <path
         d="m 419.26785,242.56897 -3.16736,0 -5.40087,21.92432 -3.31128,0 -5.36463,-19.83582 -4.82409,19.83582 -3.31128,0 -5.90406,-21.92432 -2.70044,0 0,-3.02344 9.21643,0 0,3.02344 -3.09594,0 4.28357,16.70471 4.10449,-16.70471 -3.09595,0 0,-3.02344 11.23132,0 0,3.02344 -3.09594,0 4.31982,16.70471 4.06824,-16.70471 -3.09595,0 0,-3.02344 9.14392,0 z"
         style="font-size:36px;font-variant:normal;font-stretch:normal;font-family:Rockland;-inkscape-font-specification:Rockland;fill:#ffffff"
         id="path3011" />
    </g>
  </g>
</svg>
