<?xml version="1.0" encoding="UTF-8" standalone="no"?>
<!-- Created with Inkscape (http://www.inkscape.org/) -->

<svg
   xmlns:dc="http://purl.org/dc/elements/1.1/"
   xmlns:cc="http://creativecommons.org/ns#"
   xmlns:rdf="http://www.w3.org/1999/02/22-rdf-syntax-ns#"
   xmlns:svg="http://www.w3.org/2000/svg"
   xmlns="http://www.w3.org/2000/svg"
   xmlns:sodipodi="http://sodipodi.sourceforge.net/DTD/sodipodi-0.dtd"
   xmlns:inkscape="http://www.inkscape.org/namespaces/inkscape"
   width="300"
   height="209"
   id="svg2"
   version="1.1"
   inkscape:version="0.48.2 r9819"
   sodipodi:docname="FueKomKW.svg">
  <defs
     id="defs4" />
  <sodipodi:namedview
     id="base"
     pagecolor="#ffffff"
     bordercolor="#666666"
     borderopacity="1.0"
     inkscape:pageopacity="0.0"
     inkscape:pageshadow="2"
     inkscape:zoom="0.93566975"
     inkscape:cx="-87.25166"
     inkscape:cy="139.94915"
     inkscape:document-units="px"
     inkscape:current-layer="text3002"
     showgrid="false"
     fit-margin-top="0"
     fit-margin-left="0"
     fit-margin-right="0"
     fit-margin-bottom="0"
     inkscape:window-width="1180"
     inkscape:window-height="575"
     inkscape:window-x="33"
     inkscape:window-y="225"
     inkscape:window-maximized="0" />
  <metadata
     id="metadata7">
    <rdf:RDF>
      <cc:Work
         rdf:about="">
        <dc:format>image/svg+xml</dc:format>
        <dc:type
           rdf:resource="http://purl.org/dc/dcmitype/StillImage" />
        <dc:title></dc:title>
      </cc:Work>
    </rdf:RDF>
  </metadata>
  <g
     inkscape:label="Ebene 1"
     inkscape:groupmode="layer"
     id="layer1"
     transform="translate(-155.71431,-107.86221)">
    <rect
       style="fill:#ffffff;fill-opacity:0.49615383;fill-rule:nonzero;stroke:none"
       id="rect2990"
       width="302.45715"
       height="212.68188"
       x="0"
       y="-1.5443721"
       transform="translate(155.71431,107.86221)" />
    <path
       sodipodi:type="arc"
       style="fill:#ffffff;stroke:#000000;stroke-width:8.89999961999999910;stroke-miterlimit:4;stroke-opacity:1;stroke-dasharray:none"
       id="path3010"
       sodipodi:cx="420.55435"
       sodipodi:cy="193.50308"
       sodipodi:rx="12.290661"
       sodipodi:ry="11.221909"
       d="m 432.84501,193.50308 c 0,6.19769 -5.50271,11.22191 -12.29066,11.22191 -6.78794,0 -12.29066,-5.02422 -12.29066,-11.22191 0,-6.19769 5.50272,-11.22191 12.29066,-11.22191 6.78795,0 12.29066,5.02422 12.29066,11.22191 z"
       transform="matrix(1,0,0,1.083456,-19.561209,86.501677)" />
    <path
       style="fill:#ffffff;stroke:#000000;stroke-width:3.30029344999999990;stroke-linecap:round;stroke-linejoin:round;stroke-miterlimit:4;stroke-opacity:1;fill-opacity:1"
       d="m 164.09307,115.93661 c 94.40559,41.09922 193.65433,38.14032 283.59584,0 l 0,165.65674 -283.59584,0 z"
       id="rect3780"
       inkscape:connector-curvature="0"
       sodipodi:nodetypes="ccccc" />
    <path
       sodipodi:type="arc"
       style="fill:#ffffff;stroke:#000000;stroke-width:8.89999961999999910;stroke-miterlimit:4;stroke-opacity:1;stroke-dasharray:none"
       id="path3010-1"
       sodipodi:cx="420.55435"
       sodipodi:cy="193.50308"
       sodipodi:rx="12.290661"
       sodipodi:ry="11.221909"
       d="m 432.84501,193.50308 c 0,6.19769 -5.50271,11.22191 -12.29066,11.22191 -6.78794,0 -12.29066,-5.02422 -12.29066,-11.22191 0,-6.19769 5.50272,-11.22191 12.29066,-11.22191 6.78795,0 12.29066,5.02422 12.29066,11.22191 z"
       transform="matrix(1,0,0,1.083456,-214.60864,86.903824)" />
    <path
       style="fill:#0010ff;fill-opacity:1;stroke:none"
       d="m 173.88312,134.10542 c 76.71331,29.46982 170.2901,28.12425 261.84453,0 l 0,135.73165 -261.84453,0 z"
       id="rect3801"
       inkscape:connector-curvature="0"
       sodipodi:nodetypes="ccccc" />
    <g
       style="font-size:40px;font-style:normal;font-weight:normal;line-height:125%;letter-spacing:0px;word-spacing:0px;fill:#ffffff;fill-opacity:1;stroke:none;font-family:Bitstream Vera Sans"
       id="text2991">
      <path
         d="m 352.25214,247.8595 -4.94825,0 0,-3.09864 -2.41211,0 0,14.16016 2.47461,0 0,5.57227 -11.35351,0 0,-5.57227 2.3916,0 0,-14.16016 -2.3916,0 0,3.18164 -5.11426,0 0,-8.96191 21.35352,0 z"
         style="font-size:32px;font-variant:normal;font-weight:bold;font-stretch:normal;font-family:Lubalin Graph;-inkscape-font-specification:Lubalin Graph Bold;fill:#ffffff"
         id="path2996" />
      <path
         d="m 380.32635,264.49329 -11.51855,0 0,-5.57227 2.47363,0 0,-4.26269 -7.87988,0 0,4.26269 2.47461,0 0,5.57227 -11.60254,0 0,-5.57227 2.70313,0 0,-14.45117 -2.70313,0 0,-5.48926 11.60254,0 0,5.48926 -2.47461,0 0,3.86719 7.87988,0 0,-3.86719 -2.47363,0 0,-5.48926 11.51855,0 0,5.48926 -2.32812,0 0,14.45117 2.32812,0 z"
         style="font-size:32px;font-variant:normal;font-weight:bold;font-stretch:normal;font-family:Lubalin Graph;-inkscape-font-specification:Lubalin Graph Bold;fill:#ffffff"
         id="path2998" />
      <path
         d="m 417.43378,244.46985 -2.53711,0 -5.34375,20.02344 -5.63477,0 -4.0332,-13.93067 -3.95117,13.93067 -5.78028,0 -5.73828,-20.02344 -2.16308,0 0,-5.48926 11.41504,0 0,5.48926 -2.59864,0 2.22461,8.6084 3.80469,-14.09766 5.36523,0 4.17871,14.01465 1.95508,-8.52539 -2.41211,0 0,-5.48926 11.22852,0 z"
         style="font-size:32px;font-variant:normal;font-weight:bold;font-stretch:normal;font-family:Lubalin Graph;-inkscape-font-specification:Lubalin Graph Bold;fill:#ffffff"
         id="path3000" />
      <g
         style="font-family:Bitstream Vera Sans"
         id="text3002">
        <path
           d="m 210.35312,197.17216 -7.92725,0 0,-3.24829 -5.25024,0 0,4.88648 7.30347,0 0,7.53662 -7.17286,0 0,5.22461 3.24829,0 0,6.96533 -14.76196,0 0,-6.96533 3.01514,0 0,-18.06397 -3.01514,0 0,-6.86157 24.56055,0 z"
           style="font-variant:normal;font-weight:bold;font-stretch:normal;font-family:Lubalin Graph;-inkscape-font-specification:Lubalin Graph Bold"
           id="path3007" />
        <path
           d="m 239.6976,218.53691 -9.27856,0 0,-2.33887 c -1.473,1.81885 -3.56935,2.72827 -6.28907,2.72828 -2.56511,-1e-5 -4.7225,-0.8663 -6.47216,-2.59888 -1.74968,-1.73258 -2.62452,-3.95914 -2.62452,-6.67969 l 0,-8.60229 -2.20947,0 0,-6.67969 9.66797,0 0,14.11255 c -1e-5,1.10922 0.28604,1.99301 0.85816,2.65136 0.64126,0.74464 1.57672,1.11695 2.80639,1.11695 1.24754,0 2.19196,-0.39835 2.83325,-1.19507 0.555,-0.69335 0.8325,-1.61173 0.83252,-2.75513 l 0,-7.25097 -2.70385,0 0,-6.67969 10.05859,0 0,17.20581 2.52075,0 z m -5.26733,-28.20801 -7.53784,0 0,-7.35473 7.53784,0 z m -9.95484,0 -7.53784,0 0,-7.35473 7.53784,0 z"
           style="font-variant:normal;font-weight:bold;font-stretch:normal;font-family:Lubalin Graph;-inkscape-font-specification:Lubalin Graph Bold"
           id="path3009" />
        <path
           d="m 273.56967,218.53691 -15.17944,0 0,-6.67969 2.41699,0 -7.3291,-7.25097 0,7.25097 2.88574,0 0,6.67969 -14.11377,0 0,-6.96533 3.01514,0 0,-18.06397 -3.01514,0 0,-6.86157 13.82691,0 0,6.86157 -2.59888,0 0,6.65406 7.14722,-6.65406 -2.23511,0 0,-6.86157 14.39941,0 0,6.86157 -1.81885,0 -9.95483,8.7854 9.84985,9.27857 2.70386,0 z"
           style="font-variant:normal;font-weight:bold;font-stretch:normal;font-family:Lubalin Graph;-inkscape-font-specification:Lubalin Graph Bold"
           id="path3011" />
        <path
           d="m 301.70566,206.84135 c -3e-5,3.46518 -1.28217,6.41074 -3.84644,8.83667 -2.56431,2.42595 -5.60508,3.63892 -9.12231,3.63892 -3.466,0 -6.42477,-1.25203 -8.87634,-3.7561 -2.45159,-2.50407 -3.67737,-5.50577 -3.67737,-9.00513 0,-3.46597 1.27339,-6.42922 3.82019,-8.88977 2.54678,-2.46051 5.58776,-3.69077 9.12292,-3.6908 3.44806,3e-5 6.40664,1.26935 8.87573,3.80799 2.46905,2.53867 3.70359,5.55808 3.70362,9.05822 z m -7.35474,-0.49438 c -2e-5,-1.47297 -0.5416,-2.7248 -1.62475,-3.75549 -1.08319,-1.03067 -2.37836,-1.54601 -3.8855,-1.54602 -1.50799,1e-5 -2.77304,0.58473 -3.79517,1.75415 -1.02214,1.16944 -1.53321,2.54273 -1.5332,4.11987 -10e-6,1.438 0.5371,2.66806 1.61133,3.69018 1.0742,1.02215 2.3478,1.53321 3.8208,1.53321 1.52505,0 2.80739,-0.5544 3.84704,-1.66321 1.03962,-1.1088 1.55943,-2.48636 1.55945,-4.13269 z"
           style="font-variant:normal;font-weight:bold;font-stretch:normal;font-family:Lubalin Graph;-inkscape-font-specification:Lubalin Graph Bold"
           id="path3013" />
        <path
           d="m 346.02328,218.53691 -9.66918,0 0,-13.54126 c -4e-5,-1.40379 -0.2511,-2.48655 -0.75318,-3.24829 -0.64131,-0.98794 -1.70698,-1.48192 -3.19702,-1.48193 -1.04007,1e-5 -1.89802,0.44191 -2.57385,1.32568 -0.67589,0.88381 -1.01382,1.88885 -1.0138,3.01514 l 0,6.96533 2.52198,0 0,6.96533 -9.66919,0 0,-13.93066 c -2e-5,-1.07421 -0.35525,-2.01862 -1.06568,-2.83326 -0.71046,-0.81459 -1.57675,-1.2219 -2.59887,-1.22192 -1.09133,2e-5 -1.97918,0.45921 -2.66358,1.37756 -0.68442,0.9184 -1.02662,1.97532 -1.02661,3.17078 l 0,6.47217 2.33887,0 0,6.96533 -12.57935,0 0,-6.96533 2.91016,0 0,-10.52612 -2.91016,0 0,-6.67969 9.38233,0 0,2.80639 c 0.84878,-1.21254 1.71507,-2.09633 2.59887,-2.65136 0.98794,-0.62335 2.14883,-0.93504 3.48267,-0.93506 1.97589,2e-5 3.68284,0.4765 5.12085,1.42944 1.31671,0.86672 2.09633,1.90636 2.33887,3.1189 1.69838,-3.0322 4.34079,-4.54832 7.92724,-4.54834 2.33883,2e-5 4.37029,0.77537 6.09436,2.32605 1.724,1.55072 2.58602,3.45237 2.58606,5.70495 l 0,9.95484 2.41821,0 z"
           style="font-variant:normal;font-weight:bold;font-stretch:normal;font-family:Lubalin Graph;-inkscape-font-specification:Lubalin Graph Bold"
           id="path3015" />
        <path
           d="m 379.81967,218.53691 -15.17944,0 0,-6.67969 2.41699,0 -7.3291,-7.25097 0,7.25097 2.88574,0 0,6.67969 -14.11377,0 0,-6.96533 3.01514,0 0,-18.06397 -3.01514,0 0,-6.86157 13.82691,0 0,6.86157 -2.59888,0 0,6.65406 7.14722,-6.65406 -2.23511,0 0,-6.86157 14.39941,0 0,6.86157 -1.81885,0 -9.95483,8.7854 9.84985,9.27857 2.70386,0 z"
           style="font-variant:normal;font-weight:bold;font-stretch:normal;font-family:Lubalin Graph;-inkscape-font-specification:Lubalin Graph Bold"
           id="path3017" />
        <path
           d="m 426.53964,193.50761 -3.17138,0 -6.67969,25.0293 -7.04346,0 -5.0415,-17.41333 -4.93897,17.41333 -7.22534,0 -7.17285,-25.0293 -2.70386,0 0,-6.86157 14.2688,0 0,6.86157 -3.24829,0 2.78076,10.7605 4.75586,-17.62207 6.70654,0 5.22339,17.51831 2.44385,-10.65674 -3.01514,0 0,-6.86157 14.03565,0 z"
           style="font-variant:normal;font-weight:bold;font-stretch:normal;font-family:Lubalin Graph;-inkscape-font-specification:Lubalin Graph Bold"
           id="path3019" />
      </g>
    </g>
  </g>
</svg>
