<?xml version="1.0" encoding="UTF-8" standalone="no"?>
<svg
   xmlns:dc="http://purl.org/dc/elements/1.1/"
   xmlns:cc="http://creativecommons.org/ns#"
   xmlns:rdf="http://www.w3.org/1999/02/22-rdf-syntax-ns#"
   xmlns:svg="http://www.w3.org/2000/svg"
   xmlns="http://www.w3.org/2000/svg"
   xmlns:sodipodi="http://sodipodi.sourceforge.net/DTD/sodipodi-0.dtd"
   xmlns:inkscape="http://www.inkscape.org/namespaces/inkscape"
   enable-background="new 0 0 32 32"
   height="40"
   id="Layer_1"
   version="1.1"
   viewBox="0 0 40 40"
   width="40"
   x="0px"
   xml:space="preserve"
   y="0px"
   inkscape:version="0.48.2 r9819"
   sodipodi:docname="1374059754_world.svg"><metadata
     id="metadata8"><rdf:RDF><cc:Work
         rdf:about=""><dc:format>image/svg+xml</dc:format><dc:type
           rdf:resource="http://purl.org/dc/dcmitype/StillImage" /><dc:title></dc:title></cc:Work></rdf:RDF></metadata><defs
     id="defs6" /><sodipodi:namedview
     pagecolor="#ffffff"
     bordercolor="#666666"
     borderopacity="1"
     objecttolerance="10"
     gridtolerance="10"
     guidetolerance="10"
     inkscape:pageopacity="0"
     inkscape:pageshadow="2"
     inkscape:window-width="912"
     inkscape:window-height="669"
     id="namedview4"
     showgrid="false"
     inkscape:zoom="7.375"
     inkscape:cx="16"
     inkscape:cy="21.423729"
     inkscape:window-x="0"
     inkscape:window-y="0"
     inkscape:window-maximized="0"
     inkscape:current-layer="Layer_1" /><path
     d="M 19.974576,0.27118644 C 8.9421668,0.27118644 0,9.1223002 0,20.042373 c 0,10.920072 8.9421668,19.771186 19.974576,19.771186 11.03241,0 19.974577,-8.851114 19.974577,-19.771186 0,-10.9200728 -8.942167,-19.77118656 -19.974577,-19.77118656 z M 37.339571,19.404593 h -7.72694 c -0.07088,-2.825366 -0.578618,-5.524452 -1.479407,-7.995213 1.739721,-0.718141 3.347997,-1.6735352 4.814517,-2.8024062 2.607005,2.8967972 4.237188,6.6584252 4.39183,10.7976192 z m -18.077636,17.82213 c -2.14179,-1.765376 -3.938213,-4.057558 -5.252669,-6.719653 1.686885,-0.521704 3.474287,-0.807429 5.320969,-0.866105 v 7.588309 c -0.0232,0 -0.0451,-0.0012 -0.0683,-0.0026 z M 20.68464,2.8580229 c 2.430455,2.0026299 4.413737,4.6851335 5.755256,7.8140831 -1.837661,0.621198 -3.790015,0.982181 -5.822267,1.045959 V 2.8541963 c 0.02448,0.00128 0.0451,0.00255 0.06701,0.00383 z m 2.146945,0.2168454 c 3.556763,0.5854822 6.747541,2.2296795 9.23212,4.6098753 -1.34925,1.024275 -2.823503,1.8916561 -4.417603,2.5485694 C 26.473401,7.4819295 24.827754,5.0494358 22.831585,3.0748683 z m -3.50135,-0.220672 v 8.8638687 c -2.032252,-0.06506 -3.985894,-0.424761 -5.822267,-1.045959 1.341519,-3.1289496 3.324801,-5.8114532 5.755256,-7.8140831 0.0232,-0.00128 0.04381,-0.00255 0.06701,-0.00383 z M 12.301762,10.234589 C 10.710239,9.5776752 9.2346976,8.7102941 7.8854472,7.6860191 10.368738,5.3058234 13.560804,3.6616261 17.117568,3.0761438 15.12011,5.0494358 13.475751,7.4819295 12.301762,10.234589 z m 0.720373,1.613584 c 1.987148,0.682425 4.104453,1.0804 6.3081,1.146728 v 6.409692 h -7.705032 c 0.06959,-2.671024 0.54769,-5.22342 1.396932,-7.55642 z m 6.3081,8.831981 v 7.685251 c -2.032252,0.06123 -3.997493,0.390321 -5.849329,0.980905 -1.115999,-2.630206 -1.774516,-5.560168 -1.855703,-8.666156 h 7.705032 z m -2.212667,16.329723 c -3.186912,-0.524255 -6.081292,-1.898034 -8.4344264,-3.89301 1.2693521,-0.871207 2.6417984,-1.608481 4.1083194,-2.168452 1.123731,2.306212 2.594117,4.353487 4.326107,6.061462 z m 3.501349,0.220673 v -7.588309 c 1.845394,0.05868 3.634085,0.344401 5.32097,0.866105 -1.315745,2.662094 -3.110879,4.954277 -5.252669,6.719652 -0.02191,0 -0.0451,0.0012 -0.0683,0.0026 z m 6.538775,-6.282135 c 1.465231,0.559971 2.836389,1.29852 4.108319,2.168452 -2.353134,1.993701 -5.247515,3.368755 -8.434426,3.89301 1.731989,-1.707975 3.201087,-3.75525 4.326107,-6.061462 z M 26.468247,29.34631 c -1.853126,-0.590584 -3.818366,-0.919679 -5.84933,-0.980905 v -7.685251 h 7.705032 c -0.08119,3.105988 -0.740992,6.03595 -1.855702,8.666156 z m -5.84933,-9.941717 v -6.409692 c 2.202359,-0.06632 4.319664,-0.463028 6.3081,-1.145453 0.847953,2.333 1.326055,4.885396 1.396932,7.55642 H 20.618917 z M 7.0026998,8.6069738 c 1.4665205,1.128871 3.0747962,2.0842652 4.8132282,2.8024062 -0.900789,2.470761 -1.408529,5.169847 -1.479407,7.995213 H 2.6095817 C 2.7642236,15.265399 4.3944068,11.503771 7.0026998,8.6069738 z M 2.6095817,20.680154 h 7.7269393 c 0.0799,3.259056 0.768055,6.336983 1.93689,9.103674 C 10.64065,30.413954 9.1187162,31.253274 7.7140525,32.246935 4.6882264,29.26595 2.7783991,25.190535 2.6095817,20.680154 z M 32.2351,32.24566 c -1.404664,-0.992386 -2.926598,-1.832981 -4.560647,-2.463107 1.170124,-2.766691 1.856992,-5.844619 1.938178,-9.103676 h 7.72694 C 37.170753,25.190535 35.259638,29.26595 32.2351,32.24566 z"
     id="world"
     inkscape:connector-curvature="0"
     style="fill:#ffffff" /></svg>